<?xml version="1.0" encoding="UTF-8" standalone="no"?>
<!-- Created with Inkscape (http://www.inkscape.org/) -->

<svg
   xmlns:dc="http://purl.org/dc/elements/1.1/"
   xmlns:cc="http://creativecommons.org/ns#"
   xmlns:rdf="http://www.w3.org/1999/02/22-rdf-syntax-ns#"
   xmlns:svg="http://www.w3.org/2000/svg"
   xmlns="http://www.w3.org/2000/svg"
   xmlns:sodipodi="http://sodipodi.sourceforge.net/DTD/sodipodi-0.dtd"
   xmlns:inkscape="http://www.inkscape.org/namespaces/inkscape"
   width="48.660599mm"
   height="75.226929mm"
   viewBox="0 0 48.660597 75.226934"
   version="1.1"
   id="svg8"
   inkscape:version="0.92.2 5c3e80d, 2017-08-06"
   sodipodi:docname="logo.svg">
  <defs
     id="defs2">
    <style
       id="style788">.cls-1{fill:none;}.cls-2{fill:#ebebeb;}.cls-3{fill:#e0e0e0;}.cls-4{fill:#f5f5f5;}.cls-5{fill:#fafafa;}.cls-6{fill:#fff;}.cls-7{fill:#455a64;}.cls-8{fill:#263238;}.cls-9{fill:#e8505b;}.cls-10{opacity:0.4;}.cls-11{clip-path:url(#clip-path);}.cls-12{opacity:0.3;}.cls-13{fill:#ffbe9d;}.cls-14{fill:#eb996e;}</style>
    <clipPath
       transform="translate(-76.9 -43.18)"
       id="clip-path">
      <path
         id="path790"
         d="m 205.64,242.33 a 2.54,2.54 0 1 1 -4.38,0 h -3 a 2.54,2.54 0 1 1 -4.38,0 h -3 a 2.54,2.54 0 1 1 -4.38,0 h -3 a 2.54,2.54 0 1 1 -4.38,0 h -3 a 2.54,2.54 0 1 1 -4.38,0 h -3 a 2.54,2.54 0 1 1 -4.38,0 h -1.85 V 295 h 43.84 v -52.67 z"
         class="cls-1"
         inkscape:connector-curvature="0"
         style="fill:none" />
    </clipPath>
  </defs>
  <sodipodi:namedview
     id="base"
     pagecolor="#ffffff"
     bordercolor="#666666"
     borderopacity="1.0"
     inkscape:pageopacity="0.0"
     inkscape:pageshadow="2"
     inkscape:zoom="2"
     inkscape:cx="26.17231"
     inkscape:cy="126.78285"
     inkscape:document-units="px"
     inkscape:current-layer="layer1"
     showgrid="false"
     showborder="true"
     units="mm"
     inkscape:window-width="1440"
     inkscape:window-height="856"
     inkscape:window-x="0"
     inkscape:window-y="0"
     inkscape:window-maximized="0"
     inkscape:object-paths="true"
     inkscape:snap-intersection-paths="true"
     inkscape:snap-smooth-nodes="true"
     inkscape:object-nodes="true"
     inkscape:snap-nodes="false"
     inkscape:snap-object-midpoints="true"
     inkscape:snap-others="false"
     showguides="true"
     inkscape:showpageshadow="true"
     inkscape:pagecheckerboard="false"
     inkscape:snap-center="true"
     inkscape:snap-midpoints="false"
     inkscape:measure-start="0,0"
     inkscape:measure-end="0,0"
     borderlayer="false"
     fit-margin-top="0"
     fit-margin-left="0"
     fit-margin-right="0"
     fit-margin-bottom="0">
    <inkscape:grid
       type="xygrid"
       id="grid3699"
       originx="-76.229355"
       originy="-129.5506" />
  </sodipodi:namedview>
  <metadata
     id="metadata5">
    <rdf:RDF>
      <cc:Work
         rdf:about="">
        <dc:format>image/svg+xml</dc:format>
        <dc:type
           rdf:resource="http://purl.org/dc/dcmitype/StillImage" />
        <dc:title></dc:title>
      </cc:Work>
    </rdf:RDF>
  </metadata>
  <g
     inkscape:label="Layer 1"
     inkscape:groupmode="layer"
     id="layer1"
     transform="translate(-76.229365,-92.222495)">
    <path
       style="color:#000000;font-style:normal;font-variant:normal;font-weight:normal;font-stretch:normal;font-size:medium;line-height:normal;font-family:sans-serif;font-variant-ligatures:normal;font-variant-position:normal;font-variant-caps:normal;font-variant-numeric:normal;font-variant-alternates:normal;font-feature-settings:normal;text-indent:0;text-align:start;text-decoration:none;text-decoration-line:none;text-decoration-style:solid;text-decoration-color:#000000;letter-spacing:normal;word-spacing:normal;text-transform:none;writing-mode:lr-tb;direction:ltr;text-orientation:mixed;dominant-baseline:auto;baseline-shift:baseline;text-anchor:start;white-space:normal;shape-padding:0;clip-rule:nonzero;display:inline;overflow:visible;visibility:visible;opacity:1;isolation:auto;mix-blend-mode:normal;color-interpolation:sRGB;color-interpolation-filters:linearRGB;solid-color:#000000;solid-opacity:1;vector-effect:none;fill:#f9f9f9;fill-opacity:1;fill-rule:nonzero;stroke:#f9f9f9;stroke-width:0.79375003;stroke-linecap:round;stroke-linejoin:round;stroke-miterlimit:4;stroke-dasharray:none;stroke-dashoffset:0;stroke-opacity:1;color-rendering:auto;image-rendering:auto;shape-rendering:auto;text-rendering:auto;enable-background:accumulate"
       d="m 84.299673,92.61937 c -4.220948,0 -7.673433,3.45248 -7.673433,7.67343 v 22.72678 h 3.439068 V 100.2928 c 0,-2.37492 1.859445,-4.23437 4.234365,-4.23437 h 2.65565 c 0.51471,1.68567 2.07721,2.90525 3.93568,2.90525 h 19.338367 c 1.85846,0 3.42096,-1.21958 3.93567,-2.90525 h 2.65617 c 2.37492,0 4.23282,1.85945 4.23282,4.23437 v 22.72678 h 3.43906 V 100.2928 c 0,-4.22095 -3.45093,-7.67343 -7.67188,-7.67343 z m 9.689855,27.2867 a 1.8522685,1.8522685 0 0 0 -1.742535,1.22473 l -2.50372,6.94325 H 78.346548 a 1.7199637,1.7199637 0 0 0 -1.720308,1.71876 v 10.1601 7.9375 11.49026 c 0,4.22095 3.452485,7.67188 7.673433,7.67188 h 32.521537 c 4.22095,0 7.67188,-3.45093 7.67188,-7.67188 v -11.49026 -7.9375 -10.1601 a 1.7199637,1.7199637 0 0 0 -1.71875,-1.71876 h -11.39827 l -2.50373,-6.94325 a 1.8522685,1.8522685 0 0 0 -1.74253,-1.22473 h -6.06216 -1.01389 z m 1.3007,3.7052 h 4.763532 1.01389 4.76147 l 1.6092,4.46278 H 93.681018 Z m -15.22492,7.90236 h 8.438245 l -2.1115,5.85546 h 3.93671 l 2.1115,-5.85546 h 16.238807 l 2.1115,5.85546 h 3.93671 l -2.1115,-5.85546 h 8.43825 v 8.43928 7.9375 11.49026 c 0,2.37492 -1.8579,4.23281 -4.23282,4.23281 H 84.299673 c -2.37492,0 -4.234365,-1.85789 -4.234365,-4.23281 v -11.49026 -7.9375 z m 8.771555,24.01559 v 4.00079 h 23.445607 v -4.00079 z"
       id="path956"
       inkscape:connector-curvature="0" />
  </g>
</svg>
